<?xml version="1.0" encoding="UTF-8" standalone="no"?>
<svg
   xmlns:dc="http://purl.org/dc/elements/1.1/"
   xmlns:cc="http://creativecommons.org/ns#"
   xmlns:rdf="http://www.w3.org/1999/02/22-rdf-syntax-ns#"
   xmlns:svg="http://www.w3.org/2000/svg"
   xmlns="http://www.w3.org/2000/svg"
   id="svg744"
   version="1.1"
   viewBox="0 0 210.00014 93.866577"
   height="93.866577mm"
   width="210.00014mm">
  <defs
     id="defs738">
    <clipPath
       id="clipPath20"
       clipPathUnits="userSpaceOnUse">
      <path
         id="path18"
         d="M 0,0 H 595.276 V 841.89 H 0 Z" />
    </clipPath>
    <clipPath
       id="clipPath112"
       clipPathUnits="userSpaceOnUse">
      <path
         id="path110"
         d="M 0,0 H 595.276 V 841.89 H 0 Z" />
    </clipPath>
    <clipPath
       id="clipPath152"
       clipPathUnits="userSpaceOnUse">
      <path
         id="path150"
         d="M 0,0 H 595.276 V 841.89 H 0 Z" />
    </clipPath>
    <clipPath
       id="clipPath1753"
       clipPathUnits="userSpaceOnUse">
      <rect
         transform="scale(1,-1)"
         style="fill:#000000;fill-opacity:0.29145729;stroke-width:0.6948933"
         y="-266.07849"
         x="-69.475876"
         height="284.86301"
         width="745.49261"
         id="rect1755" />
    </clipPath>
  </defs>
  <metadata
     id="metadata741">
    <rdf:RDF>
      <cc:Work
         rdf:about="">
        <dc:format>image/svg+xml</dc:format>
        <dc:type
           rdf:resource="http://purl.org/dc/dcmitype/StillImage" />
        <dc:title></dc:title>
      </cc:Work>
    </rdf:RDF>
  </metadata>
  <g
     transform="translate(-2.0589044,-95.478783)"
     id="layer1">
    <g
       clip-path="url(#clipPath1753)"
       transform="matrix(0.35277777,0,0,-0.35277777,2.0589044,189.34536)"
       id="g630">
      <g
         id="g14">
        <g
           id="g16"
           clip-path="url(#clipPath20)">
          <path
             d="M -9.06,-13.673 H 605.058 V 855.563 H -9.06 Z"
             style="fill:none;stroke:#ffffff;stroke-width:1;stroke-linecap:butt;stroke-linejoin:miter;stroke-miterlimit:4;stroke-dasharray:none;stroke-opacity:1"
             id="path22" />
          <g
             id="g24"
             transform="translate(133.2929,589.8575)">
            <path
               d="m 0,0 c 98.503,0 178.356,79.853 178.356,178.356 0,98.503 -79.853,178.356 -178.356,178.356 -98.503,0 -178.356,-79.853 -178.356,-178.356 C -178.356,79.853 -98.503,0 0,0"
               style="fill:#ffda00;fill-opacity:1;fill-rule:nonzero;stroke:none"
               id="path26" />
          </g>
          <g
             id="g28"
             transform="translate(321.6934,90.7832)">
            <path
               d="m 0,0 c -0.48,0 -0.959,0.051 -1.445,0.1 -3.852,0.525 -7.127,2.941 -8.723,6.406 -0.818,-0.096 -1.639,-0.096 -2.457,0 -4.623,0.578 -7.947,4.867 -7.32,9.537 0.484,3.568 3.175,6.459 6.652,7.18 0,0.244 0,0.533 0.041,0.777 0.627,4.814 5.063,8.332 10.027,7.654 0.912,-0.093 1.829,-0.334 2.647,-0.767 2.076,3.324 5.879,5.203 9.881,4.67 2.646,-0.383 5.056,-1.731 6.693,-3.852 1.639,-2.164 2.315,-4.773 1.973,-7.471 C 17.924,24 17.924,23.756 17.877,23.514 22.742,21.395 25.633,16.387 24.961,10.988 24.187,5.061 19.08,0.625 13.105,0.625 c -0.529,0 -1.062,0 -1.539,0.1 C 9.879,0.918 8.291,1.496 6.889,2.363 4.916,0.818 2.506,0 0,0 m -9.299,8.242 0.242,-0.58 C -7.711,4.387 -4.77,2.029 -1.252,1.596 1.539,1.209 4.24,2.029 6.361,3.809 L 6.746,4.193 7.229,3.902 c 1.347,-0.961 2.892,-1.488 4.529,-1.732 5.783,-0.725 10.984,3.371 11.707,9.059 0.627,4.865 -2.119,9.443 -6.742,11.175 l -0.627,0.192 0.193,0.677 c 0.094,0.385 0.19,0.768 0.19,1.161 0.337,2.263 -0.29,4.529 -1.686,6.359 -1.398,1.83 -3.418,2.984 -5.684,3.275 C 5.441,34.545 2.025,32.717 0.387,29.541 L 0,28.863 -0.674,29.248 c -0.869,0.533 -1.73,0.867 -2.795,0.961 -4.142,0.533 -7.804,-2.406 -8.287,-6.402 -0.092,-0.391 -0.092,-0.778 -0.092,-1.161 v -0.677 l -0.627,-0.092 c -3.134,-0.434 -5.591,-2.94 -6.025,-6.023 -0.482,-3.854 2.217,-7.372 6.066,-7.899 0.871,-0.1 1.739,-0.051 2.51,0.143 z"
               style="fill:#bd6b36;fill-opacity:1;fill-rule:nonzero;stroke:none"
               id="path30" />
          </g>
          <g
             id="g32"
             transform="translate(327.3789,76.043)">
            <path
               d="m 0,0 v 0 l -11.852,1.545 0.194,1.486 c 1.879,-0.285 3.082,1.305 3.568,2.799 0.526,1.734 1.053,5.106 1.586,9.729 l 0.094,0.677 h 0.627 c 1.256,0 2.414,0.194 3.474,0.627 l 1.153,0.434 -0.141,-1.254 C -2.074,10.795 -2.508,7.033 -2.508,5.055 -2.551,3.516 -1.73,1.736 0.191,1.492 Z m -8.477,2.598 5.395,-0.719 c -0.627,0.867 -0.965,1.973 -0.916,3.226 0.045,1.881 0.385,5.256 1.062,9.975 C -3.66,14.932 -4.381,14.791 -5.105,14.74 -5.592,10.311 -6.166,7.127 -6.697,5.395 -7.037,4.236 -7.656,3.275 -8.477,2.598"
               style="fill:#bd6b36;fill-opacity:1;fill-rule:nonzero;stroke:none"
               id="path34" />
          </g>
          <g
             id="g36"
             transform="translate(163.666,87.8379)">
            <path
               d="M 0,0 C -3.033,0 -5.875,1.246 -7.898,3.467 -8.574,3.125 -9.346,2.84 -10.113,2.742 -10.598,2.65 -11.082,2.598 -11.561,2.598 c -3.902,0 -7.228,2.793 -7.953,6.652 -0.627,3.371 1.012,6.742 3.903,8.432 -0.043,0.236 -0.094,0.478 -0.141,0.72 -0.434,2.217 0.047,4.481 1.393,6.36 1.255,1.879 3.234,3.084 5.447,3.517 0.871,0.145 1.783,0.192 2.65,0.047 0.965,3.615 3.903,6.412 7.614,7.08 0.578,0.1 1.156,0.151 1.73,0.151 4.629,0 8.58,-3.327 9.449,-7.905 0,-0.24 0,-0.433 0.094,-0.677 5.014,-0.528 9.107,-4.237 10.02,-9.293 C 23.756,11.516 19.611,5.582 13.492,4.479 11.947,4.189 10.311,4.236 8.771,4.623 7.133,2.264 4.676,0.672 1.879,0.141 1.252,0.041 0.584,0 0,0 M -7.607,5.248 -7.223,4.814 C -5.057,2.213 -1.682,0.961 1.643,1.539 4.193,2.02 6.459,3.563 7.855,5.775 L 8.145,6.26 8.674,6.115 c 1.447,-0.433 3.039,-0.533 4.529,-0.24 5.397,0.963 9.008,6.168 8.047,11.562 -0.818,4.627 -4.674,7.952 -9.344,8.192 l -0.627,0.051 -0.05,0.627 c 0,0.334 -0.049,0.718 -0.143,1.105 -0.676,3.902 -4.049,6.742 -8.004,6.742 -0.478,0 -1.012,-0.043 -1.49,-0.142 -3.324,-0.625 -6.022,-3.227 -6.6,-6.6 l -0.099,-0.723 -0.768,0.145 c -0.867,0.191 -1.832,0.24 -2.793,0.047 -1.83,-0.34 -3.469,-1.393 -4.527,-2.938 -1.065,-1.539 -1.498,-3.422 -1.164,-5.3 0.052,-0.385 0.15,-0.725 0.293,-1.108 l 0.193,-0.578 -0.578,-0.242 c -2.699,-1.297 -4.244,-4.287 -3.66,-7.229 0.576,-3.177 3.318,-5.49 6.55,-5.49 0.385,0 0.77,0.049 1.157,0.1 0.867,0.14 1.586,0.433 2.312,0.861 z"
               style="fill:#bd6b36;fill-opacity:1;fill-rule:nonzero;stroke:none"
               id="path38" />
          </g>
          <g
             id="g40"
             transform="translate(165.1113,74.5859)">
            <path
               d="m 0,0 -0.236,1.396 c 1.781,0.29 2.406,2.12 2.359,3.565 0,1.689 -0.486,4.916 -1.348,9.303 l -0.097,0.627 0.574,0.191 c 1.062,0.334 2.123,0.861 2.99,1.539 l 0.912,0.727 0.194,-1.161 C 6.166,11.129 6.893,7.66 7.42,5.875 7.953,4.143 9.35,3.131 10.889,3.416 L 11.18,2.023 Z M 2.314,13.924 C 3.082,9.734 3.568,6.693 3.568,4.961 3.568,3.809 3.281,2.748 2.797,1.93 L 7.855,2.842 C 7.037,3.469 6.41,4.383 6.072,5.488 5.592,7.178 4.92,10.361 4.146,14.838 3.568,14.498 2.941,14.164 2.314,13.924"
               style="fill:#bd6b36;fill-opacity:1;fill-rule:nonzero;stroke:none"
               id="path42" />
          </g>
          <g
             id="g44"
             transform="translate(449.1387,35.125)">
            <path
               d="m 0,0 v 0 l -10.217,4.863 -0.045,0.051 0.629,1.254 -0.051,-0.143 0.051,0.143 -0.533,-1.154 0.576,1.154 c 1.352,-0.676 2.942,-0.049 4.002,1.492 1.012,1.399 2.457,4.19 4.336,8.336 l 0.285,0.574 0.584,-0.189 C 0.578,16.045 1.543,15.902 2.551,15.902 L 4.096,15.945 3.563,14.891 C 1.299,10.311 -0.141,7.086 -0.768,5.301 -1.252,3.902 -1.012,2.072 0.578,1.252 Z M -6.893,4.82 -2.264,2.6 c -0.242,0.968 -0.242,2.074 0.194,3.181 0.578,1.69 1.879,4.623 3.853,8.719 C 1.105,14.551 0.437,14.646 -0.24,14.84 -2.07,10.938 -3.424,8.238 -4.436,6.842 -5.061,5.926 -5.922,5.207 -6.893,4.82"
               style="fill:#bd6b36;fill-opacity:1;fill-rule:nonzero;stroke:none"
               id="path46" />
          </g>
          <g
             id="g48"
             transform="translate(22.8809,39.127)">
            <path
               d="m 0,0 c -2.934,0 -5.635,1.639 -6.982,4.236 -1.491,2.944 -1.012,6.506 1.201,8.918 -0.094,0.192 -0.194,0.385 -0.334,0.575 -1.012,1.974 -1.205,4.189 -0.528,6.263 0.668,2.119 2.114,3.807 4.045,4.819 0.77,0.384 1.537,0.677 2.409,0.818 -0.145,3.568 1.785,6.986 5.011,8.676 1.303,0.668 2.793,1.06 4.239,1.06 3.466,0 6.65,-1.931 8.287,-5.013 0.093,-0.194 0.193,-0.387 0.242,-0.577 0.722,0.094 1.396,0.19 2.168,0.19 4.096,0 7.853,-2.264 9.732,-5.922 2.795,-5.4 0.678,-12.049 -4.672,-14.844 C 23.416,8.525 21.971,8.092 20.432,7.998 19.664,5.393 17.834,3.225 15.324,1.973 13.879,1.205 12.24,0.768 10.604,0.768 8.775,0.768 6.986,1.246 5.4,2.213 4.873,1.68 4.246,1.246 3.568,0.912 2.457,0.334 1.256,0 0,0 M 9.061,33.965 C 7.805,33.965 6.553,33.627 5.447,33.049 2.557,31.555 0.871,28.328 1.256,25.096 L 1.352,24.377 0.629,24.328 c -0.914,-0.094 -1.781,-0.338 -2.551,-0.771 -1.637,-0.819 -2.842,-2.215 -3.375,-4.002 -0.578,-1.731 -0.385,-3.563 0.434,-5.155 0.144,-0.334 0.334,-0.621 0.527,-0.912 l 0.391,-0.482 -0.434,-0.438 C -6.502,10.598 -7.027,7.414 -5.73,4.914 -4.621,2.744 -2.406,1.395 0,1.395 1.012,1.395 2.023,1.639 2.941,2.117 3.668,2.5 4.246,2.984 4.773,3.563 L 5.158,3.996 5.691,3.658 c 1.446,-0.967 3.178,-1.445 4.913,-1.445 1.445,0 2.794,0.287 4.095,0.965 2.264,1.152 3.903,3.224 4.528,5.681 l 0.144,0.534 h 0.533 c 1.491,0.05 2.938,0.384 4.289,1.062 4.621,2.455 6.5,8.238 4.043,12.961 -1.636,3.178 -4.914,5.154 -8.478,5.154 -0.821,0 -1.639,-0.097 -2.41,-0.291 l -0.674,-0.193 -0.194,0.627 c -0.093,0.338 -0.244,0.678 -0.433,0.963 -1.348,2.65 -3.998,4.289 -6.986,4.289"
               style="fill:#bd6b36;fill-opacity:1;fill-rule:nonzero;stroke:none"
               id="path50" />
          </g>
          <g
             id="g52"
             transform="translate(41.6738,28.5723)">
            <path
               d="m 0,0 -0.674,1.252 h 0.049 c 1.496,0.82 1.59,2.65 1.152,3.955 C 0,6.793 -1.352,9.637 -3.375,13.395 l -0.285,0.578 0.478,0.338 c 0.918,0.625 1.69,1.351 2.315,2.263 l 0.676,0.967 0.529,-1.062 C 1.832,13.49 3.904,9.494 5.207,7.613 6.119,6.219 7.707,5.635 9.059,6.312 L 9.736,5.059 H 9.686 Z M -1.83,13.539 C 0.094,9.877 1.348,7.271 1.832,5.635 2.217,4.58 2.217,3.568 2.023,2.65 L 6.361,4.867 C 5.4,5.248 4.623,5.926 3.996,6.793 2.793,8.576 1.012,12 -0.434,14.844 -0.867,14.357 -1.352,13.924 -1.83,13.539"
               style="fill:#bd6b36;fill-opacity:1;fill-rule:nonzero;stroke:none"
               id="path54" />
          </g>
          <g
             id="g56"
             transform="translate(116.4512,56.1309)">
            <path
               d="m 0,0 c -5.781,-1.541 -11.082,2.072 -13.299,7.613 -5.203,13.106 -14.353,53.192 -14.353,53.192 L -38.883,57.77 c 0,0 12.961,-39.217 14.356,-53.188 0.627,-5.934 -1.873,-11.715 -7.612,-13.254 z"
               style="fill:#bd6b36;fill-opacity:1;fill-rule:nonzero;stroke:none"
               id="path58" />
          </g>
          <g
             id="g60"
             transform="translate(106.7852,131.4961)">
            <path
               d="m 0,0 c -0.104,0.846 -0.246,1.721 -0.496,2.564 -2.774,10.145 -13.32,16.151 -23.549,13.415 -8.027,-2.145 -13.467,-8.92 -14.176,-16.612 -2.168,0.285 -4.404,0.141 -6.642,-0.457 -8.951,-2.389 -14.28,-11.547 -11.864,-20.433 0.213,-0.84 0.498,-1.686 0.887,-2.457 -6.074,-3.512 -9.234,-10.709 -7.314,-17.731 2.273,-8.428 11.045,-13.379 19.568,-11.133 1.92,0.526 3.697,1.369 5.188,2.461 5.328,-5.377 13.287,-7.832 21.134,-5.726 6.147,1.65 10.975,5.759 13.641,10.957 3.377,-0.668 7,-0.596 10.551,0.349 12.289,3.264 19.57,15.801 16.267,27.949 C 20.355,-6.352 10.551,0.42 0,0"
               style="fill:#b2d600;fill-opacity:1;fill-rule:nonzero;stroke:none"
               id="path62" />
          </g>
          <g
             id="g64"
             transform="translate(394.4531,45.1465)">
            <path
               d="M 0,0 C -5.781,1.252 -8.865,6.891 -8.287,12.816 -6.934,26.883 3.178,66.682 3.178,66.682 l -11.366,2.457 c 0,0 -6.359,-40.811 -11.472,-53.914 -2.213,-5.541 -7.027,-9.538 -12.813,-8.289 z"
               style="fill:#bd6b36;fill-opacity:1;fill-rule:nonzero;stroke:none"
               id="path66" />
          </g>
          <g
             id="g68"
             transform="translate(422.002,121.0723)">
            <path
               d="m 0,0 c 0.279,0.764 0.525,1.562 0.703,2.361 2.219,9.737 -4.369,19.28 -14.66,21.371 -8.031,1.598 -15.924,-1.796 -20.08,-7.978 -1.797,1.164 -3.807,2.029 -6.063,2.461 -9.05,1.828 -17.898,-3.623 -19.867,-12.133 -0.144,-0.83 -0.285,-1.662 -0.316,-2.457 -6.944,-0.402 -13.071,-5.09 -14.586,-11.834 -1.797,-8.045 3.629,-15.988 12.221,-17.717 1.908,-0.398 3.88,-0.431 5.709,-0.166 2.222,-6.748 8.14,-12.234 15.996,-13.826 6.201,-1.232 12.332,0.162 17.054,3.424 2.676,-2.029 5.881,-3.492 9.475,-4.223 12.369,-2.492 24.49,4.951 27.166,16.619 C 15.008,-14.061 9.439,-4.156 0,0"
               style="fill:#b2d600;fill-opacity:1;fill-rule:nonzero;stroke:none"
               id="path70" />
          </g>
          <g
             id="g72"
             transform="translate(0.002,0.002)">
            <path
               d="M 0,0 C 0,0 86.773,82.773 232.086,82.773 438.492,82.773 500.547,0 500.547,0 Z"
               style="fill:#9ed100;fill-opacity:1;fill-rule:nonzero;stroke:none"
               id="path74" />
          </g>
          <g
             id="g76"
             transform="translate(138.7109,59.0234)">
            <path
               d="m 0,0 c -13.201,-2.455 -39.557,-11.998 -47.799,-24.859 -8.281,-12.868 50.594,-11.039 114.963,-11.039 64.469,0 229.145,-6.454 212.572,6.459 C 263.209,-16.578 133.463,24.812 0,0"
               style="fill:#b8e500;fill-opacity:1;fill-rule:nonzero;stroke:none"
               id="path78" />
          </g>
          <g
             id="g80"
             transform="translate(133.2929,645.8795)">
            <path
               d="m 0,0 c 67.563,0 122.334,54.771 122.334,122.334 0,67.563 -54.771,122.334 -122.334,122.334 -67.563,0 -122.334,-54.771 -122.334,-122.334 C -122.334,54.771 -67.563,0 0,0"
               style="fill:#ffffff;fill-opacity:1;fill-rule:nonzero;stroke:none"
               id="path82" />
          </g>
          <g
             id="g84"
             transform="translate(133.2929,645.8795)">
            <path
               d="m 0,0 c 67.563,0 122.334,54.771 122.334,122.334 0,67.563 -54.771,122.334 -122.334,122.334 -67.563,0 -122.334,-54.771 -122.334,-122.334 C -122.334,54.771 -67.563,0 0,0 Z"
               style="fill:none;stroke:#fff200;stroke-width:12.10000038;stroke-linecap:butt;stroke-linejoin:miter;stroke-miterlimit:4;stroke-dasharray:none;stroke-opacity:1"
               id="path86" />
          </g>
        </g>
      </g>
      <g
         id="g537">
        <path
           id="path88"
           style="fill:#d9d9d9;fill-opacity:1;fill-rule:nonzero;stroke:none"
           d="m 521.921,4.156 h -35.639 v 34.952 h 35.639 z" />
        <path
           id="path90"
           style="fill:#b2b2b2;fill-opacity:1;fill-rule:nonzero;stroke:none"
           d="m 465.481,0 h 77.335 v 10.394 h -77.335 z" />
        <path
           id="path92"
           style="fill:#b2b2b2;fill-opacity:1;fill-rule:nonzero;stroke:none"
           d="M 440.253,117.626 H 567.944 V 24.04 H 440.253 Z" />
        <path
           id="path94"
           style="fill:#f2f2f2;fill-opacity:1;fill-rule:nonzero;stroke:none"
           d="M 441.576,116.448 H 566.627 V 30.433 H 441.576 Z" />
        <path
           id="path96"
           style="fill:#8cdeff;fill-opacity:1;fill-rule:nonzero;stroke:none"
           d="M 560.101,37.371 H 448.102 v 71.97 h 111.999 z" />
        <path
           id="path98"
           style="fill:#f2f2f2;fill-opacity:1;fill-rule:nonzero;stroke:none"
           d="m 528.265,35.714 h -8.549 v 75.368 h 8.549 z" />
        <path
           id="path100"
           style="fill:#f2f2f2;fill-opacity:1;fill-rule:nonzero;stroke:none"
           d="m 488.58,35.714 h -8.642 v 75.368 h 8.642 z" />
        <path
           id="path102"
           style="fill:#f2f2f2;fill-opacity:1;fill-rule:nonzero;stroke:none"
           d="M 442.105,90.403 H 566.538 V 82.67 H 442.105 Z" />
        <path
           id="path104"
           style="fill:#f2f2f2;fill-opacity:1;fill-rule:nonzero;stroke:none"
           d="M 442.105,64.289 H 566.538 V 56.556 H 442.105 Z" />
      </g>
      <g
         id="g106">
        <g
           id="g108"
           clip-path="url(#clipPath112)">
          <g
             id="g114"
             transform="translate(284.3811,126.6222)">
            <path
               d="m 0,0 c 0.41,0.907 0.781,1.814 1.193,2.803 6.8,16.074 17.102,40.474 61.164,38.122 21.226,-1.152 36.474,3.259 45.214,13.068 7.087,7.955 9.603,19.33 7.293,32.931 -4.246,25.057 -25.758,24.194 -26.005,24.194 l 0.206,-3.583 -0.08,1.772 0.08,-1.772 c 0.742,0.036 18.55,0.616 22.254,-21.231 1.486,-8.694 1.572,-20.938 -6.468,-29.918 C 96.899,47.437 82.674,43.442 62.563,44.513 15.992,46.945 4.655,20.196 -2.107,4.16 -2.517,3.215 -2.888,2.308 -3.3,1.443 Z"
               style="fill:#6ea600;fill-opacity:1;fill-rule:nonzero;stroke:none"
               id="path116" />
          </g>
          <g
             id="g118"
             transform="translate(321.4317,244.3788)">
            <path
               d="m 0,0 c 0,-1.692 1.36,-3.053 3.009,-3.053 h 12.488 c 1.69,0 3.012,1.361 3.012,3.053 0,1.687 -1.322,3.004 -3.012,3.004 H 3.009 C 1.36,3.004 0,1.687 0,0"
               style="fill:#ffb500;fill-opacity:1;fill-rule:nonzero;stroke:none"
               id="path120" />
          </g>
          <g
             id="g122"
             transform="translate(321.4317,228.3432)">
            <path
               d="m 0,0 c 0,-1.692 1.36,-3.05 3.009,-3.05 h 12.488 c 1.69,0 3.012,1.358 3.012,3.05 0,1.646 -1.322,3.011 -3.012,3.011 H 3.009 C 1.36,3.011 0,1.646 0,0"
               style="fill:#ffb500;fill-opacity:1;fill-rule:nonzero;stroke:none"
               id="path124" />
          </g>
          <g
             id="g126"
             transform="translate(346.4523,224.8424)">
            <path
               d="m 0,0 c 0,-1.901 1.522,-3.467 3.46,-3.467 h 26.422 c 1.937,0 3.5,1.566 3.5,3.467 v 22.996 c 0,1.896 -1.563,3.462 -3.5,3.462 H 3.46 C 1.522,26.458 0,24.892 0,22.996 Z"
               style="fill:#b8e300;fill-opacity:1;fill-rule:nonzero;stroke:none"
               id="path128" />
          </g>
          <g
             id="g130"
             transform="translate(349.9119,251.3005)">
            <path
               d="M 0,0 H 6.883 V -29.925 H 0 c -1.937,0 -3.46,1.566 -3.46,3.467 V -3.462 C -3.46,-1.566 -1.937,0 0,0"
               style="fill:#8fbd00;fill-opacity:1;fill-rule:nonzero;stroke:none"
               id="path132" />
          </g>
          <g
             id="g134"
             transform="translate(336.5579,220.3473)">
            <path
               d="m 0,0 c 0,-2.638 2.146,-4.82 4.82,-4.82 h 6.641 c 2.637,0 4.819,2.182 4.819,4.82 v 31.984 c 0,2.679 -2.182,4.822 -4.819,4.822 H 4.82 C 2.146,36.806 0,34.663 0,31.984 Z"
               style="fill:#b8e300;fill-opacity:1;fill-rule:nonzero;stroke:none"
               id="path136" />
          </g>
        </g>
      </g>
      <g
         id="g138"
         transform="translate(368.1293,230.7749)">
        <path
           d="M 0,0 3.215,5.564 0,11.167 H -6.43 L -9.688,5.564 -6.43,0 Z"
           style="fill:#ffffe5;fill-opacity:1;fill-rule:nonzero;stroke:none"
           id="path140" />
      </g>
      <g
         id="g142"
         transform="translate(366.3983,233.7837)">
        <path
           d="M 0,0 1.486,2.555 0,5.111 H -2.968 L -4.454,2.555 -2.968,0 Z"
           style="fill:#b8e300;fill-opacity:1;fill-rule:nonzero;stroke:none"
           id="path144" />
      </g>
      <g
         id="g146">
        <g
           id="g148"
           clip-path="url(#clipPath152)">
          <g
             id="g154"
             transform="translate(268.1395,123.325)">
            <path
               d="m 0,0 27.203,-16.113 v -37.056 c 0,-2.019 -1.647,-3.668 -3.71,-3.668 H 8.367 v 19.822 c 0,1.737 -1.401,3.138 -3.133,3.138 h -10.18 c -1.731,0 -3.132,-1.401 -3.132,-3.138 v -19.822 h -15.168 c -2.061,0 -3.709,1.649 -3.709,3.668 v 37.221 z"
               style="fill:#ffc73b;fill-opacity:1;fill-rule:nonzero;stroke:none"
               id="path156" />
          </g>
          <g
             id="g158"
             transform="translate(262.9875,133.6289)">
            <path
               d="m 0,0 c -0.866,-1.44 -0.371,-3.297 1.028,-4.122 l 35.858,-21.143 c 1.401,-0.866 3.217,-0.371 4.039,1.03 l 3.217,5.361 c 0.822,1.437 0.33,3.253 -1.071,4.119 L 7.254,6.388 C 5.811,7.254 3.995,6.759 3.174,5.358 Z"
               style="fill:#ff8f3b;fill-opacity:1;fill-rule:nonzero;stroke:none"
               id="path160" />
          </g>
          <g
             id="g162"
             transform="translate(273.58,133.6289)">
            <path
               d="m 0,0 c 0.824,-1.44 0.33,-3.297 -1.072,-4.122 l -35.816,-21.143 c -1.443,-0.866 -3.256,-0.371 -4.081,1.03 l -3.173,5.361 c -0.866,1.437 -0.371,3.253 1.03,4.119 L -7.254,6.388 c 1.401,0.866 3.215,0.371 4.08,-1.03 z"
               style="fill:#ff8f3b;fill-opacity:1;fill-rule:nonzero;stroke:none"
               id="path164" />
          </g>
          <g
             id="g166"
             transform="translate(313.3972,134.3708)">
            <path
               d="m 0,0 c -3.138,4.861 -13.56,10.386 -21.023,6.306 -6.1,-3.297 -6.306,-10.595 -6.306,-10.595 0,0 5.07,-6.592 11.747,-5.026 C -8.905,-7.828 -7.213,2.558 0,0"
               style="fill:#b8e300;fill-opacity:1;fill-rule:nonzero;stroke:none"
               id="path168" />
          </g>
          <g
             id="g170"
             transform="translate(270.53,149.9916)">
            <path
               d="m 0,0 c 4.366,1.072 13.351,-1.445 15.417,-7.831 1.646,-5.196 -2.187,-9.441 -2.187,-9.441 0,0 -6.471,-1.03 -9.438,3.465 C 0.827,-9.315 5.523,-2.476 0,0"
               style="fill:#b8e300;fill-opacity:1;fill-rule:nonzero;stroke:none"
               id="path172" />
          </g>
          <g
             id="g174"
             transform="translate(235.5377,145.0432)">
            <path
               d="m 0,0 c 0,-1.728 1.401,-3.13 3.13,-3.13 h 19.165 c 1.736,0 3.138,1.402 3.138,3.13 v 7.298 c 0,1.731 -1.402,3.132 -3.138,3.132 H 3.13 C 1.401,10.43 0,9.029 0,7.298 Z"
               style="fill:#b2b2b2;fill-opacity:1;fill-rule:nonzero;stroke:none"
               id="path176" />
          </g>
          <g
             id="g178"
             transform="translate(241.4315,139.0308)">
            <path
               d="m 0,0 c 0,-0.951 0.744,-1.692 1.646,-1.692 h 10.35 c 0.946,0 1.688,0.741 1.688,1.692 v 3.91 c 0,0.951 -0.742,1.693 -1.688,1.693 H 1.646 C 0.744,5.603 0,4.861 0,3.91 Z"
               style="fill:#b2b2b2;fill-opacity:1;fill-rule:nonzero;stroke:none"
               id="path180" />
          </g>
          <g
             id="g182"
             transform="translate(234.0925,166.3106)">
            <path
               d="m 0,0 c 0,-0.701 0.536,-1.316 1.236,-1.437 l 25.887,-4.168 c 0.657,-0.08 1.236,0.373 1.236,1.074 v 4.616 c 0,0.659 -0.579,1.316 -1.236,1.443 L 1.236,5.69 C 0.536,5.811 0,5.319 0,4.619 Z"
               style="fill:#87f0ff;fill-opacity:1;fill-rule:nonzero;stroke:none"
               id="path184" />
          </g>
          <g
             id="g186"
             transform="translate(234.0925,176.9469)">
            <path
               d="m 0,0 c 0,-0.659 0.536,-1.321 1.236,-1.443 l 25.887,-4.162 c 0.657,-0.085 1.236,0.371 1.236,1.071 v 4.619 c 0,0.701 -0.579,1.316 -1.236,1.44 L 1.236,5.69 C 0.536,5.77 0,5.317 0,4.616 Z"
               style="fill:#87f0ff;fill-opacity:1;fill-rule:nonzero;stroke:none"
               id="path188" />
          </g>
          <g
             id="g190"
             transform="translate(234.0925,187.6218)">
            <path
               d="m 0,0 c 0,-0.701 0.536,-1.36 1.236,-1.484 l 25.887,-4.165 c 0.657,-0.08 1.236,0.373 1.236,1.074 v 4.616 c 0,0.701 -0.579,1.36 -1.236,1.443 L 1.236,5.647 C 0.536,5.768 0,5.276 0,4.575 Z"
               style="fill:#87f0ff;fill-opacity:1;fill-rule:nonzero;stroke:none"
               id="path192" />
          </g>
          <g
             id="g194"
             transform="translate(239.1234,196.8542)">
            <path
               d="M 0,0 C 0,-0.456 0.33,-0.863 0.824,-0.948 L 17.473,-3.63 c 0.415,-0.036 0.827,0.25 0.827,0.701 v 2.973 c 0,0.451 -0.412,0.865 -0.827,0.945 L 0.824,3.627 C 0.33,3.712 0,3.418 0,2.968 Z"
               style="fill:#87f0ff;fill-opacity:1;fill-rule:nonzero;stroke:none"
               id="path196" />
          </g>
          <g
             id="g198"
             transform="translate(251.447,158.9767)">
            <path
               d="M 0,0 C 0,-1.195 0.989,-2.182 2.226,-2.182 3.418,-2.182 4.41,-1.195 4.41,0 V 3.215 C 4.41,4.451 3.418,5.44 2.226,5.44 0.989,5.44 0,4.451 0,3.215 Z"
               style="fill:#87f0ff;fill-opacity:1;fill-rule:nonzero;stroke:none"
               id="path200" />
          </g>
          <g
             id="g202"
             transform="translate(239.9478,158.9767)">
            <path
               d="M 0,0 C 0,-1.195 0.992,-2.182 2.184,-2.182 3.421,-2.182 4.41,-1.195 4.41,0 V 6.968 C 4.41,8.205 3.421,9.191 2.184,9.191 0.992,9.191 0,8.205 0,6.968 Z"
               style="fill:#87f0ff;fill-opacity:1;fill-rule:nonzero;stroke:none"
               id="path204" />
          </g>
        </g>
      </g>
    </g>
  </g>
</svg>
